<svg viewBox="0 0 80 80" id="icon--logo--outline--80" xmlns="http://www.w3.org/2000/svg"><g fill="currentColor"><path d="M79 1v78H1V1h78m1-1H0v80h80V0z"></path><path d="M12.141 48.792l-.985-2.193H8.034l-.031.085a93.292 93.292 0 00-.838 2.022H6l2.52-5.422c.413-.89.688-1.513.921-2.127l.276-.075 2.541 5.454c.298.657.71 1.514 1.048 2.17zm-1.376-3.062L9.59 43.094 8.425 45.73zM20.086 48.781l-1.907-2.998h-1.153v1.4c0 .411.009 1.227.041 1.523h-1.175c.053-.508.074-1.864.074-2.552v-2.34c0-.678-.021-2.043-.074-2.552.381 0 1.46-.042 1.948-.052 1.864-.032 2.89.995 2.86 2.17a2.31 2.31 0 01-1.557 2.16l1.08 1.589c.286.402.869 1.218 1.112 1.513zm-3.06-3.876h1.068a1.388 1.388 0 001.515-1.388c0-.91-.55-1.386-1.662-1.386-.34 0-.636.01-.912.03-.01.213-.01.456-.01.615zM29.236 42.162c-.815-.01-1.525-.02-2.467-.02-.011.222-.011.497-.011.666v4.375c0 .412.01 1.227.043 1.524h-1.175c.052-.509.073-1.864.073-2.552v-2.298c0-.434-.01-1.122-.032-1.715-.942 0-1.684.01-2.498.02a9.216 9.216 0 00.042-.963 87.717 87.717 0 006.11 0 6.76 6.76 0 00-.085.963M7.143 60.817c.054-.509.074-1.864.074-2.552v-2.34c0-.678-.02-2.043-.074-2.552a10.225 10.225 0 001.176-.053c-.032.307-.042 1.153-.042 1.567v4.405c0 .402.01 1.229.042 1.525zM18.38 54.887l-.073 4.469c0 .413-.01 1.27.02 1.567l-.275.074-4.86-5.58v3.875c0 .413.01 1.229.042 1.525h-1.165c.064-.508.116-1.864.127-2.552l.042-2.551c.011-.678.011-1.939-.042-2.447l.286-.074 4.903 5.665v-2.934c0-.678-.021-2.043-.085-2.55a10.26 10.26 0 001.165-.053c-.043.307-.075 1.153-.085 1.566M23.529 61.008a4.183 4.183 0 01-2.086-.625l.063-1.123a3.476 3.476 0 002.086.794c.795 0 1.355-.391 1.355-1.176 0-1.48-3.208-1.555-3.208-3.504a2.219 2.219 0 012.34-2.182 2.951 2.951 0 011.737.552l-.35.932a2.494 2.494 0 00-1.429-.53c-.773 0-1.239.413-1.239 1.08 0 1.324 3.198 1.387 3.198 3.505a2.262 2.262 0 01-2.467 2.276M34.405 54.273c-.816-.011-1.525-.02-2.467-.02-.012.221-.012.497-.012.666v4.374c0 .412.012 1.228.044 1.525h-1.176c.053-.509.074-1.865.074-2.553v-2.297c0-.435-.01-1.123-.032-1.716-.942 0-1.684.01-2.498.02a9.229 9.229 0 00.041-.963 87.887 87.887 0 006.11 0 6.88 6.88 0 00-.084.963M37.276 60.817c.054-.509.075-1.864.075-2.552v-2.34c0-.678-.02-2.043-.075-2.552a10.22 10.22 0 001.176-.052c-.032.307-.042 1.153-.042 1.567v4.405c0 .402.01 1.229.042 1.525zM47.243 54.273c-.816-.011-1.525-.02-2.468-.02-.011.221-.011.497-.011.666v4.374c0 .412.011 1.228.043 1.525h-1.175c.053-.509.073-1.865.073-2.553v-2.297c0-.435-.01-1.123-.031-1.716-.943 0-1.684.01-2.499.02a9.226 9.226 0 00.042-.963 87.844 87.844 0 006.11 0 6.76 6.76 0 00-.084.963M56.584 53.384l-2.372 5.422c-.392.9-.646 1.513-.857 2.127l-.276.074-2.371-5.442a50.953 50.953 0 00-.996-2.172l1.164-.084 2.32 5.56 1.43-3.462c.254-.626.53-1.356.773-2.023zM64.57 54.273c-.816-.011-1.524-.02-2.467-.02-.011.221-.011.497-.011.666v4.374c0 .412.01 1.228.043 1.525H60.96c.053-.509.073-1.865.073-2.553v-2.297c0-.435-.01-1.123-.032-1.716-.942 0-1.683.01-2.498.02a9.229 9.229 0 00.042-.963 87.868 87.868 0 006.11 0 6.82 6.82 0 00-.085.963M72.049 60.86c-.636-.043-1.42-.054-2.172-.054s-1.546.011-2.17.053c.053-.508.074-1.874.074-2.55V55.86c0-.687-.021-2.043-.074-2.551a42.592 42.592 0 004.204 0 6.56 6.56 0 00-.086.942c-.624-.01-1.27-.02-2.022-.02-.318 0-.635 0-.942.01-.021.19-.021.465-.021.625v1.599h2.573c-.022.263-.032.55-.032.868H68.84v1.959c0 .158 0 .445.02.634.308 0 .625.011.943.011.858 0 1.6-.01 2.32-.03a8.456 8.456 0 00-.074.952M12.65 72.236a3.88 3.88 0 01-2.425.846 3.671 3.671 0 01-3.706-3.717 3.93 3.93 0 013.907-4.097 3.975 3.975 0 012.203.666l-.297.975a3.223 3.223 0 00-1.97-.688 2.763 2.763 0 00-2.752 2.922 2.67 2.67 0 002.678 2.986 3.39 3.39 0 002.437-1.069zM20.752 72.892c.064-.509.085-1.864.085-2.553v-.888h-3.886v1.916c0 .402.01 1.23.042 1.525h-1.175c.052-.509.074-1.864.074-2.553V68c0-.678-.022-2.043-.074-2.552a10.036 10.036 0 001.175-.053c-.032.307-.042 1.154-.042 1.568v1.62h3.886V68c0-.678-.022-2.043-.085-2.552a10.546 10.546 0 001.197-.053c-.043.307-.053 1.154-.053 1.568v4.405c0 .402.01 1.229.053 1.525zM25.742 72.892c.054-.509.075-1.864.075-2.553V68c0-.678-.02-2.043-.075-2.552a10.042 10.042 0 001.176-.053c-.032.307-.043 1.154-.043 1.568v4.405c0 .402.011 1.229.043 1.525zM36.227 72.236a3.883 3.883 0 01-2.426.846 3.671 3.671 0 01-3.705-3.717 3.93 3.93 0 013.907-4.097 3.975 3.975 0 012.202.666l-.296.975a3.222 3.222 0 00-1.97-.688 2.763 2.763 0 00-2.753 2.922 2.67 2.67 0 002.678 2.986 3.39 3.39 0 002.437-1.069zM44.552 72.977l-.985-2.193h-3.123l-.032.085a91.989 91.989 0 00-.837 2.023H38.41l2.52-5.422c.413-.89.689-1.513.922-2.128l.276-.075 2.54 5.454c.298.657.71 1.514 1.049 2.171zm-1.376-3.061L42 67.279l-1.164 2.637zM53.142 69.397a23.73 23.73 0 001.097-.04c-.052.402-.037 1.438-.037 2.127v.815a4.43 4.43 0 01-2.638.784 3.782 3.782 0 01-3.832-3.718 3.975 3.975 0 014.034-4.097 4.491 4.491 0 012.35.667l-.296.973a3.669 3.669 0 00-2.118-.688 2.775 2.775 0 00-2.88 2.924 2.733 2.733 0 002.806 2.985 3.109 3.109 0 001.535-.338v-1.292c0-.16 0-.445-.02-.635zM64.507 68.984a3.857 3.857 0 01-3.823 4.099 3.592 3.592 0 01-3.611-3.718 3.856 3.856 0 013.823-4.097 3.592 3.592 0 013.61 3.716m-1.09.17a2.676 2.676 0 00-2.638-2.987 2.778 2.778 0 00-2.615 3.029 2.675 2.675 0 002.637 2.987 2.778 2.778 0 002.616-3.029"></path></g></svg>