<?xml version="1.0" encoding="UTF-8" standalone="no"?>
<svg version="1.1" xmlns="http://www.w3.org/2000/svg" xmlns:xlink="http://www.w3.org/1999/xlink" width="266.88" height="223.36">
	<path id="Capital_H_by_Adam_Stanislav" transform="matrix(1,0,0,1,-263.499,-449.875)" fill="black" d="M 365.016,651.863 C 365.955,651.924 362.328,653.929 357.784,655.623 C 360.368,654.123 362.712,652.8 364.351,651.956 C 364.667,651.884 364.885,651.855 365.016,651.863 Z M 316.391,578.893 C 329.139,578.871 341.869,581.372 354.353,584.616 C 355.276,597.088 355.463,609.604 354.768,622.097 C 353.212,633.843 352.796,647.411 346.875,657.921 C 345.869,657.84 345.016,657.596 344.396,657.141 C 324.4,651.861 311.055,632.677 304.9,613.903 C 301.755,603.34 300.251,589.588 305.659,579.548 C 309.233,579.105 312.813,578.9 316.391,578.893 Z M 487.34,478.629 C 488.077,478.623 488.749,478.689 489.327,478.845 C 502.888,479.261 508.972,494.445 507.768,506.203 C 505.331,534.817 485.444,558.819 462.947,575.22 C 459.685,576.652 456.171,578.049 453.98,578.629 C 450.896,579.737 447.795,580.557 444.681,581.135 C 444.8,577.708 444.963,574.304 445.12,570.947 C 447.641,538.457 454.712,502.647 480.2,480.007 C 482.7,479.235 485.279,478.648 487.34,478.629 Z M 319.421,449.804 C 316.564,449.78 313.637,450.259 310.672,451.351 C 297.405,459.879 280.187,464.955 273.236,480.456 C 263.521,500.941 259.311,526.319 269.239,547.511 L 287.996,536.721 C 297.856,533.953 285.279,524.763 287.284,517.585 C 285.839,499.701 289.249,480.059 300.107,465.429 C 301.652,465.34 303.163,465.444 304.405,465.911 C 324.811,471.544 335.268,492.756 341.205,511.421 C 346.023,528.921 349.857,546.797 352.284,564.845 C 340.017,562.937 327.621,562.588 315.521,565.691 C 303.737,571.577 289.937,577.191 282.549,588.541 C 273.908,608.44 281.588,631.576 293.164,648.617 C 303.1,662.375 319.48,677.624 337.921,672.032 C 350.379,665.508 365.987,659.465 371.532,645.457 C 377.096,628.012 378.551,609.739 378.06,591.475 C 392.487,595.948 407.925,598.456 422.841,596.547 C 422.829,601.288 422.915,606.016 423.085,610.712 C 424.471,626.151 426.692,646.069 442.737,653.296 C 461.052,659.335 479.408,648.869 495.376,640.753 C 505.888,635.707 514.456,627.817 523.477,620.591 C 512.745,626.837 501.921,633.088 490.139,637.167 C 477.903,642.167 460.283,643.428 452.716,630.169 C 446.065,617.881 444.528,603.975 444.515,590.085 C 465.921,579.873 487.3,568.148 503.567,550.572 C 520.099,532.48 534.601,507.788 529.34,482.415 C 527.108,468.427 511.5,460.033 498.451,464.976 C 474.961,474.097 451.549,488.285 440.021,511.68 C 429.08,533.38 424.512,557.507 423.235,581.735 C 409.379,580.261 395.587,575.785 382.413,571.771 C 380.532,571.257 378.637,570.745 376.733,570.24 C 376.408,566.728 376.041,563.228 375.649,559.748 C 371.24,530.197 367.884,499.213 352.44,472.985 C 345.344,461.719 333.188,449.92 319.421,449.804 Z "/>
</svg>